<svg xmlns="http://www.w3.org/2000/svg" viewBox="0 0 448 160">
  <defs>
    <style>
      .a, .b {
        fill: #a6c6f7;
      }

      .a {
        opacity: 0.4;
      }
    </style>
  </defs>
  <path class="a" d="M432,48V80H320V48h48V0h32V48ZM48,80H80V0H48Zm96,0h32V32H144ZM0,80H32V0H0ZM224,0V32h48V64H224V32H192V80H304V0ZM352,0H320V32h32Z"/>
  <path class="b" d="M352,160H320V80h32Zm48-32V80H368v80h80V128ZM80,80H48v48H80Zm64,0v48H80v32h96V80ZM32,80H0v80H32Zm160,0V96h80v32H216v32h88V80Z"/>
</svg>
